<svg width="90" height="90" viewBox="0 0 90 90" fill="none" xmlns="http://www.w3.org/2000/svg">
<mask id="path-1-inside-1" fill="white">
<rect width="90" height="90" rx="5"/>
</mask>
<rect width="90" height="90" rx="5" fill="#F29B29" stroke="black" stroke-width="20" mask="url(#path-1-inside-1)"/>
<path d="M49.36 44.28C51.84 44.84 53.8 46.08 55.24 48C56.72 49.88 57.46 52.04 57.46 54.48C57.46 58.08 56.22 60.9 53.74 62.94C51.26 64.98 47.78 66 43.3 66H22.36V23.7H42.64C46.96 23.7 50.34 24.66 52.78 26.58C55.26 28.5 56.5 31.2 56.5 34.68C56.5 37.16 55.84 39.24 54.52 40.92C53.24 42.56 51.52 43.68 49.36 44.28ZM34.12 40.5H40.06C43.02 40.5 44.5 39.28 44.5 36.84C44.5 34.32 43.02 33.06 40.06 33.06H34.12V40.5ZM40.96 56.52C43.92 56.52 45.4 55.28 45.4 52.8C45.4 51.52 45 50.54 44.2 49.86C43.44 49.18 42.34 48.84 40.9 48.84H34.12V56.52H40.96Z" fill="black"/>
<rect x="60" y="56" width="10" height="10" fill="black"/>
</svg>
